<?xml version="1.0" encoding="utf-8"?>
<!-- Generator: Adobe Illustrator 26.4.1, SVG Export Plug-In . SVG Version: 6.00 Build 0)  -->
<svg version="1.1" id="Capa_1" xmlns="http://www.w3.org/2000/svg" xmlns:xlink="http://www.w3.org/1999/xlink" x="0px" y="0px"
	 viewBox="0 0 236.6 170.8" style="enable-background:new 0 0 236.6 170.8;" xml:space="preserve">
<style type="text/css">
	.st0{fill-rule:evenodd;clip-rule:evenodd;}
</style>
<path d="M170,46.7c38.2,10.2,66.6,32,66.6,58.8c0,37.5-54.9,65.3-118.3,65.3C54.9,170.8,0,143,0,105.5c0-26.1,26.8-47.5,63.6-58
	l1.7,5.9c-36.3,10.4-59.1,30.5-59.1,52c0,31.3,48.3,59.1,112.2,59.1c63.8,0,112.2-27.9,112.2-59.1c0-22.2-24.1-42.7-62-52.9
	L170,46.7z"/>
<polygon points="100.6,58.7 100.4,57.4 100,56.3 99.6,55.1 99.1,53.9 98.6,52.7 97.9,51.5 97.3,50.5 96.5,49.3 95.7,48.3 94.8,47.3 
	93.8,46.3 92.7,45.4 91.6,44.5 90.5,43.7 90.2,43.5 89.3,42.8 88,42.1 86.6,41.4 85.1,40.7 83.7,40.2 82.1,39.6 80.6,39.1 
	78.9,38.7 77.2,38.3 71.4,47.5 73,47.8 74.4,48.1 75.9,48.4 77.2,48.9 78.4,49.3 79.6,49.7 80.7,50.1 81.7,50.5 82.6,51 83.5,51.5 
	84.2,52 85,52.6 85.5,53.1 86.2,53.7 86.7,54.4 87.1,55 87.4,55.7 87.7,56.4 88,57 88.2,57.8 88.3,58.7 88.4,59.5 88.4,60.4 
	88.4,61.4 88.3,62.4 88.1,63.4 88,64.5 87.7,65.6 87.4,66.8 87.2,68 86.8,69.3 86.3,70.6 90.2,70.6 99.1,70.6 99.5,69.2 100,67.9 
	100.3,66.6 100.6,65.2 100.7,63.9 100.8,62.6 100.8,61.2 100.7,60 "/>
<polygon points="96.9,10 97.3,10.5 97.7,11 98.1,11.4 98.6,11.9 99,12.3 99.5,12.7 100,13.1 100.4,13.5 100.9,13.9 101.4,14.3 
	101.9,14.6 102,14.7 102.5,15 103,15.3 103.6,15.7 104.2,16 104.7,16.3 105.4,16.6 106,16.8 106.5,17.1 107.2,17.3 107.8,17.6 
	108.4,17.8 109,18 109.7,18.2 110.3,18.4 111,18.5 111.6,18.6 112.3,18.8 113,18.9 113.7,19 114.3,19 114.9,19.1 115.6,19.2 
	116.3,19.2 117,19.2 117.4,19.2 117.7,19.2 118.3,19.2 119,19.2 119.7,19.1 120.3,19.1 120.9,19 121.6,19 122.2,18.8 123,18.7 
	123.6,18.6 124.3,18.4 124.9,18.2 125.6,18.1 126.2,17.8 126.8,17.6 127.4,17.3 128.1,17.2 128.6,16.9 129.2,16.6 129.9,16.4 
	130.4,16 131,15.7 131.6,15.4 132.1,15.1 132.6,14.7 132.9,14.6 133.2,14.3 133.7,14 134.2,13.6 134.6,13.2 135.1,12.8 135.6,12.4 
	136.1,12 136.5,11.5 136.9,11.1 137.3,10.6 137.7,10.1 138.1,9.6 138.4,9.2 132.9,1.6 131.9,0.4 131.6,0.9 131.3,1.5 131.1,1.9 
	130.7,2.5 130.3,3 129.9,3.5 129.5,4 129.1,4.4 128.6,4.8 128.2,5.3 127.6,5.7 127.1,6 126.5,6.3 126,6.7 125.4,7.1 124.8,7.3 
	124.2,7.5 123.5,7.8 123,8 122.3,8.3 121.7,8.4 120.9,8.6 120.3,8.7 119.7,8.8 119,8.8 118.3,8.9 117.6,8.9 117.4,8.9 117,8.9 
	116.2,8.8 115.6,8.8 114.9,8.7 114.2,8.6 113.6,8.4 112.9,8.3 112.3,8.1 111.6,7.9 111,7.7 110.3,7.4 109.8,7.1 109.2,6.8 
	108.6,6.5 108.1,6.2 107.5,5.8 107,5.3 106.5,4.9 106,4.5 105.6,4 105.2,3.6 104.8,3.2 104.4,2.7 104,2.2 103.8,1.6 103.4,1.1 
	103.2,0.6 103,0 101.9,1.5 96.2,9.1 96.6,9.6 "/>
<polygon points="116.6,57.5 116.5,56.6 116.3,55.8 116,54 115.8,53.1 115.5,52.3 115.3,51.4 114.9,50.6 114.6,49.8 114.3,48.9 
	114,48.1 113.6,47.3 113.2,46.5 112.8,45.8 112.4,45 111.9,44.1 111.4,43.4 110.8,42.7 109.8,41.2 108.5,39.9 107.3,38.5 
	106.7,37.8 106,37.2 105.3,36.5 104.6,36 103.9,35.3 103.1,34.8 101.9,33.9 101.6,33.6 100,32.6 98.3,31.5 96.6,30.6 94.8,29.7 
	93.8,29.3 92.9,28.8 91.9,28.5 91,28.2 90.2,27.9 90,27.8 89,27.5 88.1,27.1 87,26.9 85.9,26.7 84.9,26.4 79.7,34.7 81.5,35.3 
	83.2,36 84.9,36.7 86.4,37.4 88.1,38.2 89.5,38.9 90.2,39.3 90.9,39.7 92.3,40.5 93.6,41.3 94.8,42.1 95.9,43 97,43.9 98,44.9 
	99,45.8 99.9,46.8 100.7,47.9 101.5,48.9 101.9,49.6 102.2,50.1 102.8,51.2 103.4,52.4 103.9,53.6 104.3,54.9 104.6,56.3 
	104.8,57.6 105.1,59.1 105.2,60.5 105.2,62.1 105.2,63.7 105.2,65.4 104.9,67.1 104.7,68.9 104.4,70.7 115.2,70.7 115.5,69.8 
	115.8,68.8 116,67.8 116.2,66.8 116.3,65.9 116.5,65 116.6,64 116.7,63 116.7,62.1 116.7,61.2 116.7,60.3 116.7,59.3 116.7,58.4 "/>
<polygon points="157.4,38.2 155.7,38.6 154.1,39 152.5,39.5 150.9,40.1 149.5,40.7 148,41.3 146.7,42 145.4,42.8 144.4,43.4 
	144.1,43.6 143,44.4 141.9,45.3 140.8,46.3 139.8,47.2 138.9,48.2 138.1,49.3 137.3,50.3 136.7,51.4 136,52.6 135.5,53.8 135,55 
	134.6,56.1 134.3,57.4 134.1,58.6 133.9,59.9 133.8,61.2 133.8,62.5 133.9,63.8 134.1,65.1 134.3,66.4 134.6,67.8 135,69.1 
	135.5,70.5 144.4,70.5 148.2,70.5 147.8,69.1 147.5,67.9 147.2,66.7 146.9,65.5 146.7,64.4 146.5,63.3 146.3,62.3 146.3,61.3 
	146.2,60.4 146.2,59.5 146.3,58.6 146.5,57.8 146.6,56.9 146.9,56.3 147.2,55.6 147.5,54.9 148,54.3 148.5,53.6 149.1,53 
	149.7,52.5 150.4,51.9 151.2,51.4 152,50.9 152.9,50.5 153.9,50 155,49.6 156.2,49.2 157.4,48.8 158.7,48.4 160.2,48 161.6,47.7 
	163.2,47.3 "/>
<polygon points="134.7,46.7 135.6,45.7 136.6,44.7 137.6,43.8 138.7,42.9 139.8,42 141.1,41.2 142.3,40.3 143.7,39.6 144.4,39.2 
	145.2,38.8 146.6,38.1 148.2,37.3 149.7,36.6 151.4,35.9 153.1,35.2 154.9,34.6 149.7,26.2 148.7,26.5 147.6,26.8 146.6,27.1 
	145.7,27.4 144.6,27.7 144.4,27.8 143.6,28 142.7,28.4 141.8,28.8 140.8,29.2 139.9,29.6 138,30.5 136.3,31.4 134.6,32.5 133,33.5 
	132.9,33.7 131.5,34.7 130.8,35.2 130,35.9 129.3,36.4 128.6,37.1 128,37.8 127.3,38.4 126,39.8 124.9,41.2 123.8,42.6 123.3,43.3 
	122.8,44.1 122.3,44.9 121.8,45.6 121.4,46.4 121,47.2 120.6,48 120.3,48.9 120,49.7 119.7,50.5 119.3,51.4 119.2,52.2 118.9,53.1 
	118.7,54 118.3,55.7 118.3,56.5 118.1,57.4 118,58.3 118,59.2 117.9,60.1 117.9,61.1 118,62 118,63 118.1,63.9 118.3,64.8 
	118.3,65.8 118.5,66.8 118.8,67.7 118.9,68.7 119.2,69.7 119.4,70.6 130.2,70.6 129.9,68.8 129.6,67 129.5,65.3 129.5,63.6 
	129.4,62 129.5,60.4 129.6,59 129.8,57.5 130,56.1 130.3,54.8 130.8,53.5 131.2,52.3 131.8,51.1 132.4,49.9 132.9,49.3 133.2,48.9 
	133.9,47.8 "/>
<polygon points="119.3,33.5 120,33.5 120.6,33.4 121.3,33.3 122.1,33.3 122.8,33.2 123.5,33.1 124.3,33 124.9,32.9 125.6,32.8 
	126.4,32.6 127,32.5 127.8,32.3 128.4,32.2 129.1,32 129.8,31.8 130.5,31.7 131.1,31.4 131.8,31.3 132.5,31 132.9,30.9 133.2,30.8 
	133.8,30.5 134.5,30.3 135.1,30.1 135.8,29.8 136.4,29.5 137.1,29.2 137.7,28.9 138.3,28.7 138.9,28.4 139.5,27.9 140.1,27.6 
	140.7,27.3 141.3,27 141.9,26.7 142.5,26.2 143,25.8 143.6,25.5 144.1,25.1 144.4,25 144.7,24.7 145.2,24.3 145.7,23.9 146.3,23.5 
	146.8,23 147.3,22.6 147.8,22.1 144.4,17.7 141.5,14 141,14.4 140.5,14.9 139.9,15.4 139.3,15.8 138.8,16.3 138.2,16.7 137.5,17.1 
	137,17.5 136.3,17.9 135.7,18.2 135,18.6 134.4,19 133.7,19.3 133,19.6 132.9,19.7 132.4,19.9 131.7,20.2 131,20.5 130.3,20.7 
	129.5,21 128.9,21.2 128.1,21.5 127.4,21.7 126.7,21.9 125.9,22 125.2,22.2 124.4,22.4 123.6,22.5 122.9,22.6 122.2,22.8 
	121.3,22.9 120.6,22.9 119.8,23 119.2,23 118.3,23.1 117.5,23.1 117.4,23.1 116.8,23.1 116,23.1 115.3,23 114.5,23 113.7,22.9 
	113,22.9 112.2,22.8 111.5,22.7 110.6,22.5 109.9,22.4 109.2,22.3 108.4,22.1 107.6,21.9 106.9,21.7 106.2,21.6 105.5,21.3 
	104.7,21.1 104,20.8 103.4,20.6 102.6,20.3 101.9,20 101.9,19.9 101.3,19.7 100.6,19.4 99.9,19 99.2,18.7 98.6,18.3 97.9,18 
	97.3,17.6 96.7,17.2 96.2,16.8 95.5,16.4 94.9,16 94.4,15.5 93.8,15.1 93.2,14.6 92.7,14.1 90.2,17.7 87.1,22.4 87.6,22.9 
	88.1,23.2 88.6,23.7 89.1,24.1 89.6,24.5 90.2,25 90.2,25 90.7,25.3 91.3,25.7 91.9,26.1 92.4,26.5 93,26.8 93.6,27.1 94.1,27.6 
	94.8,27.9 95.3,28.2 96,28.5 96.6,28.8 97.2,29.1 97.9,29.4 98.5,29.6 99.2,30 99.8,30.2 100.4,30.5 101.1,30.7 101.7,30.9 
	101.9,30.9 102.5,31.2 103.1,31.4 103.8,31.6 104.5,31.8 105.2,31.9 105.9,32.1 106.5,32.3 107.2,32.5 107.9,32.6 108.6,32.7 
	109.3,32.8 110,33 110.7,33.1 111.5,33.1 112.1,33.2 112.8,33.3 113.6,33.4 114.3,33.4 115,33.5 115.8,33.5 116.4,33.5 117.1,33.5 
	117.4,33.5 117.9,33.5 118.6,33.5 "/>
<path class="st0" d="M48.5,111.9c-0.8-0.3-1.8-0.5-3.1-0.8c-1.3-0.2-2.8-0.3-4.5-0.4c-3.6,0-6.5,0.7-8.6,2c-2.1,1.3-3.1,2.9-3.2,4.9
	c0,1.7,0.9,3.1,2.5,4.3c1.6,1.2,3.8,2.1,6.5,2.9c2.1,0.6,3.7,1.3,4.7,2c1,0.7,1.5,1.6,1.5,2.7c0,1.2-0.6,2.1-1.7,2.7
	c-1.1,0.7-2.8,1-5,1c-1.5,0-2.9-0.1-4.3-0.4c-1.4-0.3-2.5-0.6-3.5-1l-1.2,3.2c0.9,0.4,2.2,0.8,3.7,1c1.6,0.3,3.2,0.4,5,0.4
	c4.1,0,7.2-0.7,9.3-2.1c2.1-1.4,3.2-3.1,3.2-5.2c0-1.7-0.7-3.1-2.1-4.3c-1.4-1.2-3.6-2.2-6.5-3.1c-2.3-0.7-4-1.3-5-2
	c-1.1-0.7-1.6-1.5-1.6-2.5c0-0.8,0.5-1.6,1.4-2.3c1-0.7,2.5-1,4.7-1.1c1.5,0,2.8,0.1,3.9,0.4c1.1,0.2,1.9,0.5,2.5,0.7L48.5,111.9z"
	/>
<polygon class="st0" points="75.3,133 61.1,133 61.1,124.7 73.7,124.7 73.7,121.5 61.1,121.5 61.1,114.3 74.5,114.3 74.5,111.1 
	55.7,111.1 55.7,136.1 75.3,136.1 "/>
<path class="st0" d="M86.2,122.7v-8.6c0.3-0.1,0.8-0.1,1.5-0.2c0.7,0,1.4-0.1,2.4-0.1c2,0,3.7,0.3,5.1,0.9c1.4,0.7,2.1,1.8,2.1,3.4
	c0,1.4-0.7,2.4-2,3.2c-1.3,0.8-3.1,1.2-5.4,1.2C89.9,122.7,86.2,122.7,86.2,122.7z M96.3,124.2c1.9-0.5,3.4-1.3,4.6-2.3
	c1.2-1.1,1.8-2.4,1.9-4c0-1-0.2-1.9-0.7-2.8c-0.5-0.8-1.2-1.5-2.2-2.1c-1.1-0.7-2.5-1.2-4.2-1.5c-1.7-0.3-3.7-0.5-6-0.5
	c-1.7,0-3.2,0.1-4.7,0.2c-1.5,0.1-2.9,0.2-4,0.4v24.7h5.4v-10.6h3.3c1.9,0,3.3,0.3,4.3,1c1,0.7,1.7,1.9,2.2,3.6
	c0.5,1.5,0.9,2.8,1.3,3.9c0.4,1,0.7,1.7,1,2.1h5.7c-0.4-0.5-0.8-1.3-1.2-2.5c-0.5-1.2-0.9-2.6-1.5-4.3c-0.4-1.3-1-2.4-1.8-3.3
	C98.7,125.2,97.6,124.6,96.3,124.2C96.3,124.2,96.3,124.2,96.3,124.2z"/>
<path class="st0" d="M128.3,111.1l-5.1,11.8c-0.7,1.5-1.3,3.1-1.9,4.7c-0.6,1.5-1.1,3.1-1.6,4.6h-0.1c-0.5-1.5-1-3-1.5-4.6
	c-0.6-1.5-1.2-3.1-1.9-4.7l-4.8-11.8h-6l10.9,25h6.1l11.7-25H128.3z"/>
<rect x="138" y="111.1" class="st0" width="5.5" height="25"/>
<path class="st0" d="M173.4,132.4c-0.8,0.3-1.8,0.5-2.9,0.6c-1.2,0.2-2.3,0.2-3.6,0.2c-3.8,0-6.7-0.8-8.8-2.5
	c-2.1-1.6-3.2-4-3.2-7.1c0.1-3.3,1.2-5.7,3.5-7.3c2.2-1.6,5.1-2.5,8.7-2.5c1.3,0,2.5,0.1,3.6,0.3c1.1,0.2,2,0.4,2.7,0.6l1.2-3.1
	c-0.5-0.2-1.4-0.4-2.7-0.6c-1.3-0.2-2.9-0.3-5-0.3c-3.4,0-6.4,0.5-9,1.5c-2.7,1-4.8,2.5-6.3,4.4c-1.6,2-2.3,4.4-2.4,7.2
	c0.1,4,1.6,7.1,4.6,9.3c3,2.2,7.1,3.3,12.1,3.3c2,0,3.7-0.1,5.2-0.3c1.5-0.2,2.6-0.4,3.3-0.7L173.4,132.4z"/>
<polygon class="st0" points="199.4,133 185.2,133 185.2,124.7 197.8,124.7 197.8,121.5 185.2,121.5 185.2,114.3 198.6,114.3 
	198.6,111.1 179.7,111.1 179.7,136.1 199.4,136.1 "/>
<path class="st0" d="M52.6,99.7c-0.8,0.3-1.8,0.5-2.9,0.6c-1.1,0.2-2.3,0.2-3.6,0.2c-3.8,0-6.7-0.8-8.8-2.5c-2.1-1.6-3.2-4-3.2-7.1
	c0.1-3.3,1.2-5.7,3.5-7.3c2.2-1.6,5.1-2.5,8.7-2.5c1.3,0,2.5,0.1,3.6,0.3c1.1,0.2,2,0.4,2.7,0.6l1.2-3.1c-0.5-0.2-1.4-0.4-2.7-0.6
	c-1.3-0.2-3-0.3-5-0.4c-3.4,0-6.4,0.5-9,1.5c-2.7,1-4.8,2.5-6.3,4.4c-1.6,1.9-2.3,4.3-2.4,7.2c0.1,4,1.6,7.1,4.6,9.3
	c3,2.2,7.1,3.3,12.1,3.3c2,0,3.7-0.1,5.1-0.3c1.5-0.2,2.6-0.4,3.3-0.7L52.6,99.7z"/>
<polygon class="st0" points="78.3,100.3 64.4,100.3 64.4,78.4 59,78.4 59,103.5 78.3,103.5 "/>
<polygon class="st0" points="102.9,100.3 88.7,100.3 88.7,92 101.3,92 101.3,88.9 88.7,88.9 88.7,81.6 102.1,81.6 102.1,78.4 
	83.2,78.4 83.2,103.5 102.9,103.5 "/>
<path class="st0" d="M115.4,93.2l2.9-6.6c0.3-0.8,0.6-1.6,0.9-2.5c0.3-0.9,0.5-1.7,0.8-2.5h0.1c0.3,0.8,0.5,1.6,0.8,2.4
	c0.3,0.8,0.6,1.7,1,2.5l2.8,6.6H115.4z M123.5,78.4h-6.7l-11,25h5.6l3.1-7.4h11l3.2,7.4h5.7L123.5,78.4z"/>
<path class="st0" d="M165.3,78.4h-5v9.2c0,2,0.1,3.8,0.1,5.5c0.1,1.7,0.2,3.4,0.4,5.1l-0.1,0c-0.8-1.3-1.7-2.7-2.7-4.1
	c-1-1.4-2-2.8-3.2-4.2l-9.4-11.6h-5.9v25h5v-9.4c0-2.2,0-4.1-0.1-5.9c-0.1-1.7-0.2-3.4-0.3-4.9l0.2,0c0.8,1.4,1.8,2.8,2.8,4.3
	c1,1.4,2.1,2.8,3.2,4.2l9.5,11.7h5.5L165.3,78.4L165.3,78.4z"/>
<path class="st0" d="M193.9,80.6c1.3,0,2.3,0.4,2.8,1c0.6,0.6,0.9,1.3,0.9,2c0,0.9-0.5,1.8-1.3,2.5c-0.9,0.7-2.1,1.4-3.7,2.1
	c-0.7-0.6-1.3-1.3-1.8-2c-0.5-0.7-0.7-1.4-0.7-2.2c0-0.9,0.3-1.6,0.9-2.3C191.6,81,192.6,80.7,193.9,80.6 M193.1,101
	c-2,0-3.7-0.5-4.8-1.4c-1.2-0.9-1.8-2-1.8-3.4c0.1-1.1,0.5-2.1,1.3-2.8c0.8-0.8,1.7-1.3,2.6-1.8c1.7,1.4,3.3,2.8,4.9,4.1
	c1.6,1.3,3,2.4,4.1,3.3c-0.5,0.4-1.2,0.8-2.3,1.3C196.1,100.7,194.8,101,193.1,101 M205.5,99c1.4-1.2,2.5-2.5,3.3-4.1
	c0.8-1.6,1.4-3.3,1.9-5.2h-4.9c-0.3,1.3-0.6,2.6-1.1,3.8c-0.5,1.2-1.1,2.2-1.9,3.1c-1.1-0.9-2.4-1.9-3.7-3.1
	c-1.3-1.1-2.6-2.2-3.9-3.3v-0.1c2.6-1,4.5-2,5.7-3.1c1.1-1.1,1.7-2.3,1.7-3.6c-0.1-1.7-0.8-3-2.4-4c-1.5-0.9-3.4-1.4-5.7-1.4
	c-2,0-3.7,0.3-5.1,0.9c-1.4,0.6-2.4,1.4-3.1,2.3c-0.7,0.9-1,1.9-1,3c0,0.9,0.3,1.8,0.8,2.7c0.5,0.9,1.2,1.7,2.1,2.5l0,0.1
	c-2,0.8-3.6,1.8-4.8,3c-1.2,1.2-1.8,2.6-1.8,4.2c0,1.2,0.4,2.4,1.3,3.4c0.8,1.1,2.1,1.9,3.7,2.6c1.6,0.6,3.6,1,6,1
	c1.9,0,3.7-0.2,5.3-0.7c1.6-0.4,3.1-1.1,4.4-2c0.6,0.5,1.1,0.9,1.6,1.2c0.5,0.3,0.9,0.7,1.3,1h6.4L205.5,99z"/>
</svg>
