<?xml version="1.0" encoding="utf-8"?>
<!-- Generator: Adobe Illustrator 26.4.1, SVG Export Plug-In . SVG Version: 6.00 Build 0)  -->
<svg version="1.1" id="Capa_1" xmlns="http://www.w3.org/2000/svg" xmlns:xlink="http://www.w3.org/1999/xlink" x="0px" y="0px"
	 viewBox="0 0 774.8 195.1" style="enable-background:new 0 0 774.8 195.1;" xml:space="preserve">
<style type="text/css">
	.st0{fill:#ED7009;}
	.st1{fill:#FFFFFF;}
</style>
<g>
	<g>
		<polygon class="st0" points="64.7,142.4 116.6,142.4 160.8,73.3 106.8,10.2 52,10.2 107.7,75.3 		"/>
		<polygon class="st0" points="82.3,106.1 60.4,140.3 14.2,86.3 65.4,86.3 		"/>
		<polyline class="st0" points="66,146.9 117,146.9 151.8,187.8 101,187.8 		"/>
		<polygon class="st0" points="56.3,142.4 12.7,142.4 12.7,91.4 		"/>
	</g>
	<g>
		<path class="st1" d="M223.6,147.5c-0.6,0.2-1.4,0.4-2.4,0.7c-1,0.2-2.1,0.4-3.3,0.4c-4.4,0-6.5-1.8-6.5-5.5V64
			c0-1.6,0.4-2.8,1.2-3.6c0.8-0.8,2-1.5,3.7-2c2.9-0.9,6.4-1.5,10.6-1.9c4.2-0.4,8.3-0.6,12.3-0.6c12.5,0,21.8,2.5,27.9,7.5
			c6.1,5,9.1,12.1,9.1,21.3c0,6.8-1.8,12.6-5.3,17.2c-3.5,4.7-8.8,8-16,10c2.5,3.2,5,6.3,7.4,9.5c2.5,3.2,4.8,6.2,7.1,9
			c2.2,2.8,4.2,5.4,5.9,7.7c1.7,2.3,3.1,4.1,4.1,5.3c-0.4,1.7-1.3,3-2.6,4c-1.3,1-2.7,1.5-4.1,1.5c-1.7,0-3.1-0.4-4.2-1.2
			c-1.1-0.8-2.2-2-3.4-3.7l-21.7-30.3h-19.9V147.5z M240.6,103.5c7.3,0,13.1-1.6,17.2-4.8c4.2-3.2,6.2-7.9,6.2-14.1
			c0-6.2-2.2-10.9-6.5-14c-4.4-3.1-10.6-4.7-18.7-4.7c-2.7,0-5.4,0.1-8.1,0.4c-2.7,0.2-5.1,0.6-7.2,1v36.3H240.6z"/>
		<path class="st1" d="M303.9,120.4c2.7,13,11.2,19.5,25.6,19.5c4.2,0,7.9-0.7,11.3-2.1c3.4-1.4,6-2.9,8-4.5
			c2.4,1.4,3.6,3.3,3.6,5.6c0,1.4-0.6,2.7-1.9,4c-1.2,1.3-2.9,2.4-5.1,3.4c-2.1,1-4.6,1.8-7.4,2.4s-5.9,0.9-9.1,0.9
			c-11.5,0-20.6-3.1-27.3-9.4c-6.7-6.2-10-15.4-10-27.3c0-5.6,0.8-10.7,2.5-15.1c1.6-4.4,3.9-8.1,6.8-11.2c2.9-3.1,6.4-5.4,10.5-7.1
			c4.1-1.6,8.5-2.5,13.2-2.5c4.5,0,8.6,0.7,12.3,2.2c3.8,1.5,7,3.6,9.7,6.3c2.7,2.7,4.9,5.9,6.4,9.7s2.3,7.8,2.3,12.3
			c0,2.2-0.5,3.7-1.5,4.7c-1,0.9-2.4,1.5-4.2,1.7L303.9,120.4z M324.4,86.9c-6,0-11,2.1-15,6.3c-4,4.2-6,10.2-6.2,18.1l40.9-5.6
			c-0.5-5.4-2.4-9.9-5.7-13.4C335,88.6,330.3,86.9,324.4,86.9z"/>
		<path class="st1" d="M384.6,83H414c0.3,0.5,0.6,1.1,0.9,1.9c0.3,0.8,0.4,1.7,0.4,2.8c0,3.3-1.5,4.9-4.6,4.9h-26v54.8
			c-0.5,0.2-1.2,0.4-2.2,0.7c-1,0.2-2.1,0.4-3.3,0.4c-4.3,0-6.4-1.8-6.4-5.3V73c0-8.7,2.4-15,7.1-18.9c4.7-3.9,11.3-5.9,19.7-5.9
			c5.6,0,10.1,0.7,13.3,2.2c3.2,1.5,4.8,3.3,4.8,5.5c0,2.2-0.8,4-2.5,5.5c-1.8-1-4-1.8-6.7-2.5c-2.7-0.6-5.3-1-7.7-1
			c-6,0-10.3,1.2-12.6,3.7c-2.4,2.5-3.6,6.4-3.6,11.9V83z M430.8,57.4c0-2.1,0.7-3.8,2.2-5.3c1.4-1.4,3.3-2.2,5.6-2.2
			c2.3,0,4.1,0.7,5.5,2.2c1.4,1.4,2.1,3.2,2.1,5.3c0,2.1-0.7,3.8-2.1,5.3c-1.4,1.4-3.2,2.2-5.5,2.2c-2.3,0-4.1-0.7-5.6-2.2
			C431.5,61.3,430.8,59.5,430.8,57.4z M444.5,147.5c-0.5,0.2-1.2,0.4-2.2,0.7c-1,0.2-2.1,0.4-3.3,0.4c-4.3,0-6.4-1.8-6.4-5.3V79.4
			c0.5-0.2,1.3-0.4,2.3-0.7c1-0.2,2.2-0.4,3.3-0.4c4.2,0,6.2,1.8,6.2,5.5V147.5z"/>
		<path class="st1" d="M499.4,87.2c-3.4,0-6.5,0.6-9.4,1.7c-2.9,1.1-5.4,2.8-7.4,5.1c-2.1,2.2-3.7,5-4.9,8.3
			c-1.2,3.3-1.8,7.1-1.8,11.4c0,8.5,2.1,15,6.4,19.5c4.3,4.5,10,6.8,17.1,6.8c4.2,0,7.6-0.6,10.4-1.7c2.8-1.1,5.3-2.5,7.4-3.9
			c1.1,0.6,2,1.3,2.7,2.2c0.7,0.9,1,2,1,3.3c0,1.4-0.5,2.7-1.6,3.9c-1.1,1.2-2.6,2.2-4.5,3.1c-1.9,0.9-4.2,1.6-6.8,2.2
			c-2.6,0.5-5.5,0.8-8.5,0.8c-5.2,0-9.9-0.7-14.3-2.2c-4.4-1.5-8.1-3.7-11.3-6.7c-3.2-3-5.6-6.7-7.4-11.2c-1.8-4.5-2.7-9.8-2.7-16
			c0-6,0.9-11.3,2.8-15.8c1.9-4.5,4.4-8.3,7.6-11.4c3.2-3.1,6.9-5.4,11.2-6.9c4.3-1.5,8.9-2.3,13.7-2.3c3.1,0,5.9,0.3,8.5,0.8
			c2.6,0.5,4.9,1.3,6.8,2.3c1.9,1,3.3,2.1,4.4,3.3c1,1.2,1.6,2.5,1.6,3.8c0,1.2-0.3,2.2-1,3.1c-0.7,0.9-1.6,1.6-2.7,2.1
			c-2.2-1.5-4.6-2.8-7.1-3.9C507,87.7,503.6,87.2,499.4,87.2z"/>
		<path class="st1" d="M545.4,120.4c2.7,13,11.2,19.5,25.6,19.5c4.2,0,7.9-0.7,11.3-2.1c3.4-1.4,6-2.9,8-4.5
			c2.4,1.4,3.6,3.3,3.6,5.6c0,1.4-0.6,2.7-1.9,4c-1.2,1.3-2.9,2.4-5.1,3.4c-2.1,1-4.6,1.8-7.4,2.4s-5.9,0.9-9.1,0.9
			c-11.5,0-20.6-3.1-27.3-9.4c-6.7-6.2-10-15.4-10-27.3c0-5.6,0.8-10.7,2.5-15.1c1.6-4.4,3.9-8.1,6.8-11.2c2.9-3.1,6.4-5.4,10.5-7.1
			c4.1-1.6,8.5-2.5,13.2-2.5c4.5,0,8.6,0.7,12.3,2.2c3.8,1.5,7,3.6,9.7,6.3c2.7,2.7,4.9,5.9,6.4,9.7c1.5,3.7,2.3,7.8,2.3,12.3
			c0,2.2-0.5,3.7-1.5,4.7c-1,0.9-2.4,1.5-4.2,1.7L545.4,120.4z M565.9,86.9c-6,0-11,2.1-15,6.3c-4,4.2-6,10.2-6.2,18.1l40.9-5.6
			c-0.5-5.4-2.4-9.9-5.7-13.4C576.5,88.6,571.8,86.9,565.9,86.9z"/>
		<path class="st1" d="M656.9,90.9c-3.1-2.6-7.3-3.9-12.6-3.9c-4,0-7.5,0.5-10.6,1.5c-3.1,1-5.7,2.1-7.9,3.4v55.6
			c-0.5,0.2-1.2,0.4-2.2,0.7c-1,0.2-2.1,0.4-3.3,0.4c-4.3,0-6.4-1.8-6.4-5.3V92.5c0-2.1,0.4-3.8,1.3-5.1c0.8-1.3,2.3-2.7,4.4-3.9
			c2.6-1.6,6-3,10.3-4.3c4.3-1.3,9.1-1.9,14.4-1.9c9,0,16.1,2,21.3,6.1c5.2,4.1,7.8,10.5,7.8,19.2v45c-0.5,0.2-1.3,0.4-2.3,0.7
			c-1,0.2-2.1,0.4-3.2,0.4c-4.3,0-6.4-1.8-6.4-5.3v-40.1C661.6,97.5,660,93.4,656.9,90.9z"/>
		<path class="st1" d="M719.2,149.7c-6.9,0-12.6-1.5-16.9-4.6c-4.3-3.1-6.5-8.2-6.5-15.3V59.2c0.5-0.2,1.3-0.4,2.3-0.7
			c1-0.2,2.2-0.4,3.3-0.4c4.2,0,6.2,1.8,6.2,5.3v17.1h24.4c0.3,0.5,0.6,1.2,0.9,2c0.3,0.8,0.4,1.8,0.4,2.7c0,3.4-1.5,5.1-4.5,5.1
			h-21.3v38.6c0,4,1.1,6.8,3.3,8.4c2.2,1.6,5.4,2.5,9.4,2.5c1.7,0,3.6-0.3,5.6-0.9c2.1-0.6,3.8-1.3,5.2-2.1c0.6,0.6,1.1,1.3,1.6,2.2
			c0.5,0.9,0.7,1.9,0.7,3.1c0,2.2-1.3,4-3.9,5.3C727.4,149,723.8,149.7,719.2,149.7z"/>
	</g>
</g>
</svg>
